<?xml version="1.0" encoding="utf-8"?>
<!-- Generator: Adobe Illustrator 27.8.0, SVG Export Plug-In . SVG Version: 6.00 Build 0)  -->
<svg version="1.1" id="Layer_1" xmlns="http://www.w3.org/2000/svg" xmlns:xlink="http://www.w3.org/1999/xlink" x="0px" y="0px"
	 viewBox="0 0 70.3 70.3" style="enable-background:new 0 0 70.3 70.3;" xml:space="preserve">
<style type="text/css">
	.st0{fill:#A20000;stroke:#A20000;stroke-width:0.5;stroke-miterlimit:10;}
</style>
<path class="st0" d="M35.1,4.8C18.4,4.8,4.8,18.4,4.8,35.1c0,16.7,13.6,30.3,30.3,30.3c16.7,0,30.3-13.6,30.3-30.3
	S51.9,4.8,35.1,4.8z M48.7,47.7c-0.4,0.4-0.9,0.6-1.4,0.6c-0.5,0-1-0.2-1.4-0.6L33.7,35.6c-0.4-0.4-0.6-0.9-0.6-1.4V15.9
	c0-1.1,0.9-2,2-2c1.1,0,2,0.9,2,2v17.4l11.5,11.5C49.5,45.6,49.5,46.9,48.7,47.7L48.7,47.7z"/>
</svg>
