<svg width="72" height="51" viewBox="0 0 72 51" fill="none" xmlns="http://www.w3.org/2000/svg">
<g clip-path="url(#clip0_0_86)">
<path d="M53.4919 8.21105H47.5812C44.1385 3.14521 38.6252 0.161133 32.5734 0.161133H18.5145C13.6038 0.161133 8.99439 2.13333 5.53254 5.72325C2.0707 9.30027 0.160271 14.0632 0.160271 19.129V40.4881C0.160271 41.2164 0.500044 41.9124 1.07702 42.3442C1.46167 42.6343 1.91684 42.789 2.39124 42.789C2.62203 42.789 2.85282 42.7503 3.0772 42.6794L16.9887 38.0389C17.508 38.084 18.008 38.1034 18.5145 38.1034H24.4317C27.7589 42.9694 33.2337 46.1597 39.4266 46.1597H53.4919C53.9856 46.1597 54.4984 46.134 55.0177 46.0953L68.9228 50.7358C69.1472 50.8131 69.378 50.8453 69.6088 50.8453C70.0832 50.8453 70.5383 50.6906 70.923 50.4006C71.4935 49.9688 71.8397 49.2792 71.8397 48.5444V27.1854C71.8397 16.725 63.6082 8.2175 53.4919 8.2175V8.21105ZM25.5407 27.1854C25.5407 19.2579 31.7721 12.8128 39.433 12.8128H53.4983C61.1593 12.8128 67.3906 19.2644 67.3906 27.1854V45.3863L55.9601 41.5708C55.7357 41.4935 55.5049 41.4613 55.2742 41.4613C55.1908 41.4613 55.1139 41.4613 55.0305 41.4742C54.5113 41.5322 53.9984 41.5644 53.5048 41.5644H39.4394C31.7785 41.5644 25.5471 35.1129 25.5471 27.1918L25.5407 27.1854Z" fill="#A20000" stroke="#A20000" stroke-width="0.5" stroke-miterlimit="10"/>
<path d="M36.2725 25.3872H34.9454C33.7145 25.3872 32.7144 26.4184 32.7144 27.6881C32.7144 28.9578 33.7145 29.989 34.9454 29.989H36.2725C37.5033 29.989 38.5034 28.9578 38.5034 27.6881C38.5034 26.4184 37.5033 25.3872 36.2725 25.3872Z" fill="#A20000" stroke="#A20000" stroke-width="0.5" stroke-miterlimit="10"/>
<path d="M47.1324 25.3872H45.8054C44.5745 25.3872 43.5744 26.4184 43.5744 27.6881C43.5744 28.9578 44.5745 29.989 45.8054 29.989H47.1324C48.3633 29.989 49.3634 28.9578 49.3634 27.6881C49.3634 26.4184 48.3633 25.3872 47.1324 25.3872Z" fill="#A20000" stroke="#A20000" stroke-width="0.5" stroke-miterlimit="10"/>
<path d="M57.9859 25.3872H56.6589C55.428 25.3872 54.4279 26.4184 54.4279 27.6881C54.4279 28.9578 55.428 29.989 56.6589 29.989H57.9859C59.2168 29.989 60.2169 28.9578 60.2169 27.6881C60.2169 26.4184 59.2168 25.3872 57.9859 25.3872Z" fill="#A20000" stroke="#A20000" stroke-width="0.5" stroke-miterlimit="10"/>
<path d="M25.124 40.0111C25.124 40.0111 20.1492 32.8442 21.0532 24.2658C21.9571 15.6874 28.3871 8.49463 36.9328 7.86946C39.4458 7.68899 44.5937 7.71477 48.812 7.71477" stroke="white" stroke-miterlimit="10"/>
</g>
<defs>
<clipPath id="clip0_0_86">
<rect width="72" height="51" fill="white"/>
</clipPath>
</defs>
</svg>
