<svg width="31" height="64" viewBox="0 0 31 64" fill="none" xmlns="http://www.w3.org/2000/svg">
<path d="M30.14 21.1C30.14 23.94 28.29 26.04 25.7 26.12C23.1 26.2 21.1 24.13 20.88 21.16C20.59 17.18 16.93 14.76 13.22 16.09C10.86 16.94 9.34 19.26 9.53 21.75C9.71 24.15 11.86 26.5 14.33 26.98C16.39 27.38 18.55 27.47 20.49 28.17C25.99 30.16 29.15 34.28 29.89 40.04C30.83 47.35 27.41 53 20.62 56.05C20.29 56.2 20.01 56.73 19.93 57.13C19.71 58.25 19.8 59.47 19.43 60.52C18.73 62.49 16.73 63.49 14.6 63.22C12.62 62.97 11.07 61.47 10.75 59.46C10.64 58.77 10.56 58.05 10.64 57.37C10.73 56.57 10.52 56.21 9.73 55.91C4.17 53.8 0.380001 48.23 0.370001 42.27C0.370001 39.59 2.04 37.66 4.54 37.49C7.25 37.3 9.21 38.95 9.51 41.78C9.74 43.96 10.47 45.79 12.43 46.96C14.38 48.12 17.02 47.97 18.76 46.59C20.57 45.15 21.29 42.68 20.58 40.31C19.95 38.18 17.95 36.53 15.7 36.43C9.79 36.18 5.21 33.62 2.18 28.51C-1.73 21.92 0.480001 13.31 7.13 9.05999C8.04 8.47999 9.06 8.07999 10 7.53999C10.27 7.37999 10.53 7.01999 10.57 6.71999C10.66 6.05999 10.58 5.38999 10.63 4.71999C10.79 2.11999 12.67 0.279986 15.17 0.249986C17.52 0.219986 19.79 2.10999 19.72 4.56999C19.66 6.65999 20.45 7.52999 22.25 8.37999C27.5 10.86 30.19 17.27 30.14 21.1Z" fill="#A20000" stroke="#A20000" stroke-width="0.5" stroke-miterlimit="10"/>
</svg>
