<?xml version="1.0" encoding="utf-8"?>
<!-- Generator: Adobe Illustrator 27.8.0, SVG Export Plug-In . SVG Version: 6.00 Build 0)  -->
<svg version="1.1" id="Layer_1" xmlns="http://www.w3.org/2000/svg" xmlns:xlink="http://www.w3.org/1999/xlink" x="0px" y="0px"
	 viewBox="0 0 164.4 176" style="enable-background:new 0 0 164.4 176;" xml:space="preserve">
<style type="text/css">
	.st0{clip-path:url(#SVGID_00000056427452671472810010000012496417638070678708_);}
	.st1{fill:#DA2222;}
	.st2{fill:#243C84;}
</style>
<g>
	<defs>
		<rect id="SVGID_1_" y="5.5" width="163.1" height="170.1"/>
	</defs>
	<clipPath id="SVGID_00000159443304099588288660000007380291487892395186_">
		<use xlink:href="#SVGID_1_"  style="overflow:visible;"/>
	</clipPath>
	<g style="clip-path:url(#SVGID_00000159443304099588288660000007380291487892395186_);">
		<path d="M119,91l-5.5,4.6l0-7.1L119,91z"/>
		<path class="st1" d="M83.7,115.9c-1.5,0-2.7,1.2-2.7,2.7v19.2c0,1.5,1.2,2.7,2.7,2.7h14.4c1.5,0,2.7-1.2,2.7-2.7v-19.2
			c0-1.5-1.2-2.7-2.7-2.7H83.7z M95.4,135h-9v-13.5h9V135z"/>
		<path class="st1" d="M98.1,140.7H83.7c-1.6,0-3-1.3-3-2.9v-19.2c0-1.6,1.3-2.9,3-2.9h14.4c1.6,0,2.9,1.3,2.9,2.9v19.2
			C101,139.4,99.7,140.7,98.1,140.7z M83.7,116.1c-1.4,0-2.5,1.1-2.5,2.5v19.2c0,1.4,1.1,2.4,2.5,2.4h14.4c1.3,0,2.4-1.1,2.4-2.4
			v-19.2c0-1.4-1.1-2.5-2.4-2.5H83.7z M95.6,135.3h-9.5v-14h9.5V135.3z M86.6,134.8h8.5v-13h-8.5V134.8z"/>
		<path class="st1" d="M121.9,93.7c-0.2-0.5-2.1-1.1-2.2-1.9c-0.1-0.8-0.6,2-1.3,1.6l-5.4-2.5c-0.7-0.4-1.1-1.6-1.8-1.2
			c-0.6,0.4-1.3-2-1.3-1.2l0.3,10l-30-22.8c-1-0.7-2.3-0.7-3.2,0L42.2,102c-0.9,0.7-1.3,1.9-0.9,3c0.4,1.1,1.4,1.8,2.5,1.8h3.3V145
			c0,1.5,1.2,2.7,2.7,2.7h57.6c1.5,0,2.7-1.2,2.7-2.7s-1.2-2.7-2.7-2.7H52.6v-38.1c0-1-0.5-1.8-1.3-2.3l27.3-20.7l27.4,20.8
			c0,0,0,0-0.1,0.1c-0.1,0.1-0.3,0.2-0.4,0.3c0,0-0.1,0.1-0.1,0.1c-0.1,0.1-0.2,0.3-0.3,0.4c0,0,0,0,0,0c-0.2,0.4-0.3,0.8-0.3,1.3
			v18.9c0,1.5,1.2,2.7,2.7,2.7c1.5,0,2.7-1.2,2.7-2.7v-16.2h3.2c1.2,0,2.2-0.7,2.5-1.8c0.4-1.1,0-2.3-0.9-3l-1.5-1.2
			c0.2-0.1,0.4-0.2,0.5-0.3L121.9,93.7L121.9,93.7z"/>
		<path class="st1" d="M107.5,147.9H49.9c-1.6,0-3-1.3-3-3v-37.9h-3.1c-1.3,0-2.4-0.8-2.8-2c-0.4-1.2,0-2.5,1-3.3l34.8-26.4
			c1.1-0.8,2.5-0.8,3.5,0l29.6,22.5l-0.3-9.4c0-0.1,0-0.3,0.2-0.4c0.2-0.1,0.3,0.1,0.5,0.5c0.1,0.3,0.4,0.9,0.6,0.9
			c0.7-0.3,1.1,0.2,1.4,0.6c0.2,0.2,0.4,0.5,0.6,0.6l5.4,2.5c0.2-0.1,0.5-0.8,0.6-1.1c0.2-0.5,0.3-0.7,0.5-0.7
			c0.1,0,0.2,0.1,0.3,0.3c0,0.3,0.7,0.8,1.2,1.1c0.5,0.3,0.8,0.5,1,0.8l0.1,0.2l-8.1,7c-0.1,0-0.1,0.1-0.2,0.1l1.2,0.9
			c1,0.8,1.4,2.1,1,3.3c-0.4,1.2-1.5,2-2.8,2h-2.9v16c0,1.6-1.3,3-3,3c-1.6,0-2.9-1.3-2.9-3v-18.9c0-0.5,0.1-0.9,0.4-1.4
			c0.1-0.2,0.2-0.4,0.3-0.5c0,0,0-0.1,0.1-0.1c0.1-0.1,0.1-0.2,0.2-0.2l-27-20.5l-26.9,20.4c0.7,0.6,1.1,1.4,1.1,2.3V142h54.6
			c1.6,0,2.9,1.3,2.9,2.9C110.4,146.6,109.1,147.9,107.5,147.9L107.5,147.9z M43.8,106.6h3.6V145c0,1.4,1.1,2.4,2.5,2.4h57.6
			c1.3,0,2.5-1.1,2.5-2.4s-1.1-2.4-2.5-2.4H52.3v-38.4c0-0.8-0.5-1.6-1.2-2.1l-0.3-0.2l27.7-21.1l27.8,21.1l-0.3,0.2c0,0,0,0,0,0
			c-0.1,0.1-0.2,0.2-0.4,0.3l0,0c-0.1,0.2-0.2,0.3-0.3,0.4c-0.2,0.4-0.3,0.8-0.3,1.2V123c0,1.4,1.1,2.5,2.4,2.5s2.5-1.1,2.5-2.5
			v-16.5h3.4c1.1,0,2-0.7,2.3-1.7c0.3-1,0-2.1-0.8-2.8l-1.9-1.5l0.4-0.2c0.2-0.1,0.3-0.1,0.5-0.2l7.8-6.7c-0.2-0.1-0.4-0.3-0.7-0.5
			c-0.5-0.3-1-0.6-1.2-1c0,0,0,0,0,0.1c-0.3,0.7-0.5,1.2-0.9,1.4c-0.1,0.1-0.3,0.1-0.4,0l-5.4-2.5c-0.3-0.2-0.5-0.4-0.8-0.7
			c-0.4-0.5-0.6-0.6-0.8-0.5c-0.1,0.1-0.3,0.1-0.4,0.1c-0.3-0.1-0.5-0.4-0.8-0.8l0.3,9.7L80.1,75.7c-0.9-0.6-2.1-0.6-2.9,0
			l-34.8,26.4c-0.8,0.6-1.2,1.7-0.8,2.7C41.8,105.9,42.8,106.5,43.8,106.6L43.8,106.6L43.8,106.6z"/>
		<path class="st2" d="M160.2,13.4l-13.6-6.3c-0.6-0.2-1.2-0.2-1.7,0c-0.6,0.2-1,0.6-1.3,1.2L122,54.5H23.8
			c-2.1-2.5-5.1-4.2-8.5-4.6C12,49.5,8.7,50.4,6,52.3c-2.9,2.1-4.6,5.5-4.5,9.1v101.9c0,0.2,0,0.3,0,0.5c0,2.3,0.6,4.6,2,6.5
			c1.4,2,3.6,3.3,6,3.7H11c1.9,0,3.7-0.6,5.2-1.7c0.6-0.4,0.9-1.1,0.9-1.8v-12.8c1.4,0.6,2.6,1.6,3.5,2.8c0,0,0.1,0.1,0.1,0.1
			c0.1,0.1,0.1,0.2,0.2,0.2c0.1,0.1,0.1,0.1,0.2,0.2c0.1,0,0.1,0.1,0.2,0.1c0.1,0.1,0.1,0.1,0.2,0.1c0.1,0,0.1,0.1,0.2,0.1
			c0.1,0,0.2,0.1,0.2,0.1c0.1,0,0.3,0.1,0.5,0.1h123.8c1.2,0,2.3-1,2.3-2.3V56.8c0-1.2-1-2.3-2.3-2.3h-2.8l17.8-38.1
			C161.9,15.3,161.4,13.9,160.2,13.4L160.2,13.4z M12.8,169.3c-0.8,0.3-1.6,0.5-2.5,0.3c-1.2-0.2-2.3-0.9-3-1.9c0,0-0.1-0.1-0.1-0.1
			c-2-2.9-1.3-6.9,1.6-9c1.2-0.9,2.6-1.4,4-1.5V169.3z M20.2,154.3c-1.5-0.8-3.1-1.4-4.9-1.6c-0.3,0-0.5,0-0.8,0.1
			c-3-0.2-6,0.6-8.5,2.4c0,0,0,0-0.1,0V62c0.1-0.3,0.1-0.5,0.1-0.8c0-2.1,1-4.1,2.7-5.3c1.8-1.2,3.9-1.8,6-1.5
			c2.1,0.3,4,1.3,5.3,2.8L20.2,154.3L20.2,154.3z M144,59L144,59l0,98H24.8V59h95.1l-8.4,17.9c0,0,0,0,0,0.1
			c-0.2,0.5-0.2,1.1-0.1,1.7v9.8c0,0.9,0.5,1.7,1.3,2l5.4,2.5c0.3,0.1,0.6,0.2,0.9,0.2c0.6,0.1,1.1-0.1,1.5-0.4l8.1-6.8
			c0.5-0.4,0.7-1,0.8-1.6L141.4,59H144L144,59z M111.8,79.5l14.9,6.9c0.5,0.2,0.6,0.8,0.2,1.2l-5.6,4.7c-0.4,0.3-0.8,0.3-1.2,0.2
			l-7.9-3.7c-0.4-0.2-0.7-0.6-0.7-1.1v-7.9C111.4,79.6,111.6,79.4,111.8,79.5L111.8,79.5z M126,81.3l-2.9-1.3l-6.5-3.2L146.8,12
			l9.4,4.5L126,81.3L126,81.3z"/>
		<path class="st2" d="M9.6,175.6l-0.2,0c-2.8-0.4-5.4-2-7-4.3C0.8,169.1,0,166.6,0,164c0-0.2,0-0.4,0-0.6v-102
			c-0.1-4,1.9-7.9,5.2-10.3c3-2.2,6.7-3.2,10.4-2.7c3.4,0.4,6.6,2,8.9,4.6H121l21.3-45.3c0.4-0.9,1.1-1.6,2.1-1.9
			c0.9-0.4,2-0.4,2.9,0l13.6,6.3c1.9,0.9,2.7,3.1,1.9,5l-16.9,36h0.4c2.1,0,3.8,1.7,3.8,3.8v102.5c0,2.1-1.7,3.8-3.8,3.8H22.6
			c-0.4,0-0.6,0-0.9-0.1c-0.1,0-0.2-0.1-0.4-0.1c-0.2-0.1-0.3-0.1-0.4-0.1c-0.1-0.1-0.3-0.1-0.4-0.2c-0.1-0.1-0.2-0.1-0.3-0.2
			c-0.1-0.1-0.2-0.2-0.3-0.3c-0.1-0.1-0.2-0.2-0.3-0.3c-0.1-0.1-0.1-0.1-0.2-0.2c-0.2-0.4-0.5-0.7-0.8-1v10c0,1.2-0.6,2.3-1.5,3
			c-1.8,1.3-3.9,2-6.1,2L9.6,175.6L9.6,175.6z M9.7,172.6H11c1.6,0,3.1-0.5,4.3-1.4c0.2-0.1,0.3-0.3,0.3-0.6v-15l2.1,0.9
			c1.6,0.7,3.1,1.8,4.1,3.2c0,0,0.1,0.1,0.1,0.1l-0.8,1.3l0.9-1.2l0.3,0.1c0.1,0,0.1,0,0.2,0h123.8c0.4,0,0.8-0.3,0.8-0.8V56.8
			c0-0.4-0.3-0.8-0.8-0.8h-5.1L160,15.8c0.2-0.4,0-0.8-0.4-1h0L146,8.5c-0.1-0.1-0.3-0.1-0.5,0l-0.2,0.1c-0.1,0.1-0.3,0.2-0.3,0.3
			L122.9,56H23.1l-0.5-0.5c-1.9-2.3-4.6-3.7-7.5-4.1c-2.9-0.4-5.8,0.4-8.2,2.1c-2.5,1.8-4,4.7-3.9,7.8v102c0,0,0,0.1,0,0.2l0,0.2
			v0.2c0,2,0.5,4,1.7,5.7C5.9,171.1,7.7,172.2,9.7,172.6L9.7,172.6z M11,171.2c-0.3,0-0.7,0-1-0.1c-1.6-0.2-3-1.1-4-2.5L6,168.5
			c-1.2-1.7-1.7-3.8-1.3-5.9c0.4-2.1,1.5-3.9,3.3-5.1c1.4-1,3-1.6,4.8-1.8l1.6-0.1v14.8l-0.9,0.4C12.7,171,11.9,171.2,11,171.2z
			 M11.3,159c-0.6,0.2-1.1,0.5-1.6,0.9c-1.1,0.8-1.8,1.9-2.1,3.2c-0.2,1.3,0.1,2.6,0.8,3.7l0.1,0.1c0.5,0.7,1.2,1.1,2,1.2
			c0.3,0.1,0.5,0.1,0.8,0V159z M145.5,158.5H23.3v-101h98.9l-9.4,20c-0.1,0.2-0.1,0.4,0,0.6l0.1,0.3l14.4,6.7c0,0,0.1,0,0.1,0.1
			l0.3-0.3c0.1-0.1,0.2-0.3,0.2-0.5l0-0.3l12.4-26.5h5.1L145.5,158.5L145.5,158.5z M26.3,155.5h116.3v-95h-0.2L131,84.8
			c-0.1,0.9-0.6,1.7-1.2,2.3l-1.9,1.6c0,0,0,0,0,0l-6.2,5.2c-0.8,0.6-1.7,0.8-2.6,0.8c-0.5,0-1-0.2-1.5-0.4l-5.4-2.5
			c-1.3-0.6-2.2-1.9-2.2-3.4v-0.8v-7.9v-0.9c-0.2-0.8-0.2-1.7,0.2-2.5l0-0.1l7.4-15.7H26.3V155.5L26.3,155.5z M112.9,87.5l7.5,3.6
			l4.5-3.8l-12-5.6L112.9,87.5L112.9,87.5z M4.5,158.1V61.8l0.1-0.2c0-0.1,0-0.2,0-0.3v-0.1c0-2.6,1.3-5,3.3-6.5
			c2.1-1.5,4.6-2.1,7.1-1.8c2.4,0.3,4.6,1.5,6.3,3.3l0.4,0.4v100.1l-2.2-1.3c-1.4-0.8-2.8-1.2-4.3-1.4c-0.1,0-0.2,0-0.3,0l-0.2,0.1
			l-0.2,0c-2.7-0.2-5.3,0.6-7.4,2.1l-0.1,0L4.5,158.1L4.5,158.1z M7.5,62.2v90.3c2.2-1,4.5-1.5,6.9-1.3c0.4-0.1,0.7-0.1,1.1,0
			c1.1,0.1,2.2,0.4,3.2,0.8V57.9c-1.1-1.1-2.5-1.7-4-1.9c-1.8-0.2-3.5,0.2-5,1.2c-1.3,0.9-2.1,2.4-2.1,4C7.7,61.5,7.6,61.9,7.5,62.2
			L7.5,62.2z M126.8,83.2l-4.2-2l-7.9-3.8L146.1,10l12.1,5.8L126.8,83.2L126.8,83.2z M118.6,76.1l6.7,3.2l28.9-62l-6.7-3.2
			L118.6,76.1z"/>
	</g>
</g>
</svg>
