<?xml version="1.0" encoding="utf-8"?>
<!-- Generator: Adobe Illustrator 27.8.0, SVG Export Plug-In . SVG Version: 6.00 Build 0)  -->
<svg version="1.1" id="Layer_1" xmlns="http://www.w3.org/2000/svg" xmlns:xlink="http://www.w3.org/1999/xlink" x="0px" y="0px"
	 viewBox="0 0 148 148" style="enable-background:new 0 0 148 148;" xml:space="preserve">
<style type="text/css">
	.st0{clip-path:url(#SVGID_00000029004722473692387900000007664831692047751817_);}
	.st1{fill:#243C84;stroke:#243C84;stroke-width:2;stroke-miterlimit:10;}
	.st2{fill:#DA2222;}
	.st3{fill:#243C84;}
</style>
<g>
	<g>
		<defs>
			<rect id="SVGID_1_" x="10" y="13" width="128" height="128"/>
		</defs>
		<clipPath id="SVGID_00000074404192170923189750000008568944806821847704_">
			<use xlink:href="#SVGID_1_"  style="overflow:visible;"/>
		</clipPath>
		<g style="clip-path:url(#SVGID_00000074404192170923189750000008568944806821847704_);">
			<path class="st1" d="M20.5,13.7c4.5,2.6,8.9,5.2,13.4,7.8c1.7,1,3.4,2,5.1,3c1.2,0.7,1.7,1.7,1.5,3.1s-0.5,2.8-0.6,4.2
				c0,0.6,0.1,1.3,0.5,1.7c10.9,11,21.8,21.9,32.8,32.8c0.2,0.2,0.5,0.5,0.8,0.7c0.7-0.6,1.3-1.2,2-1.8c2.3-1.8,5.4-2.1,7.9-0.5
				c1.5,1,2.8,2.3,3.9,3.6c1.3,1.5,1.3,3.4,0.8,5.3c-0.2,0.9-0.1,1.5,0.6,2.1c0.2,0.2,0.5,0.4,0.6,0.7c1.4,1.8,3.1,2.9,5.6,2.9
				c2.6,0,4.7,1.4,6.6,3.2c10.2,10.2,20.3,20.3,30.5,30.4c2.4,2.4,3.8,5.2,4.4,8.5c0,0.2,0.1,0.4,0.2,0.6v4.5
				c-0.1,0.3-0.2,0.6-0.3,0.8c-1.5,6.5-5.2,10.9-11.8,12.6c-0.2,0.1-0.4,0.2-0.6,0.3h-6.3c-3.1-1-5.9-2.3-8.3-4.6
				c-6.2-6.3-12.5-12.5-18.7-18.8c-3.9-3.9-7.7-7.8-11.6-11.7c-2.4-2.3-3.6-5.1-3.6-8.5c0-0.7-0.5-1.3-0.8-1.9
				c-0.2-0.3-0.5-0.5-0.7-0.8C73,92.3,71.6,91,69,91.6c-3.2,0.8-6.6-3.1-7.8-5.7c-1.3-3-0.6-5.7,1.6-8c0.3-0.3,0.6-0.7,1-1.1
				c-0.4-0.4-0.7-0.8-1-1.1C52.2,65.1,41.5,54.4,30.7,43.6c-0.6-0.6-1.2-0.9-2.1-0.7c-1.2,0.3-2.5,0.4-3.8,0.6
				c-1.6,0.3-2.7-0.3-3.5-1.7c-3.3-6-6.7-11.9-10.2-17.8c-0.1-0.2-0.3-0.3-0.4-0.5c0-0.5,0-1.1,0-1.6c2.6-2.7,5.3-5.4,7.9-8.2
				C19.3,13.8,19.9,13.8,20.5,13.7L20.5,13.7z M132.1,124.2c0-3.2-1.4-5.8-3.6-8.1c-9.9-9.9-19.7-19.8-29.6-29.7
				c-1.9-1.9-4-2.8-6.6-2.5c-1.2,0.2-2.2-0.2-3.1-1.1c-1.6-1.6-3.2-3.2-4.8-4.9c-1.4-1.4-1.5-2.3-0.6-4c0.6-1.1,0.5-2.1-0.4-3
				c-0.4-0.4-0.8-0.8-1.2-1.2c-1.2-1.2-2.5-1.3-3.7-0.1c-3.9,3.9-7.8,7.8-11.7,11.7c-1.3,1.3-1.2,2.5,0.1,3.8c0.3,0.3,0.6,0.6,1,0.9
				c1.3,1.2,1.9,1.3,3.4,0.5c1.4-0.7,2.5-0.6,3.6,0.5c1.8,1.8,3.7,3.5,5.4,5.4c0.5,0.6,1,1.5,0.8,2.2c-0.6,3.2,0.8,5.5,3,7.7
				c6,5.8,11.8,11.8,17.7,17.7c4.2,4.2,8.4,8.5,12.8,12.5c3.2,3,7.2,3.5,11.2,1.7C130,132.5,132,128.9,132.1,124.2L132.1,124.2z
				 M70.5,70.5c-0.5-0.5-1-0.8-1.5-1.2c-11-11-22-22-33.1-33c-1.1-1.1-1.7-2.2-1.3-3.7c0.3-1,0.3-2,0.5-3c0.2-0.9,0-1.4-0.9-1.9
				c-3.6-2-7.2-4.1-10.9-6.2c-1.1-0.6-2.3-1.8-3.3-1.6c-1.1,0.2-1.9,1.7-2.9,2.5c-0.7,0.6-0.7,1.1-0.2,1.8c2.1,3.6,4.2,7.2,6.3,10.8
				c0.6,1.1,1.1,2.6,2,3.1s2.4-0.1,3.7-0.3c0.1,0,0.3,0,0.4,0c1.6-0.5,2.8,0.2,4,1.3c11,11,22,22.1,33,33.1c0.4,0.4,0.6,1.1,0.9,1.6
				c0.1-0.2,0.3-0.3,0.4-0.5C68.6,72.4,69.4,71.6,70.5,70.5z"/>
			<path class="st1" d="M137.3,44.8c-0.8,3-1.3,6-2.3,8.9c-1.9,5.3-4.6,10.3-8.4,14.5c-5.5,6.1-13.3,8-21,5.2
				c-1.5-0.5-2.9-1.2-4.3-1.9c-1-0.5-1.6-0.5-2.4,0.4c-0.5,0.7-1.1,1.2-1.8,1.8c-1.1,1-2.6,1-3.6,0.1s-1-2.4,0-3.6
				c1.3-1.4,2.6-2.7,4-4c1.1-1,2.2-0.8,3.5-0.3c2.6,1.2,5.2,2.5,7.9,3.2c5.5,1.5,10.3,0.1,14-4.4c4.7-5.6,7.9-11.9,8.8-19.2
				c0.1-0.6,0.1-1.2,0.1-1.8c0-0.2-0.1-0.3-0.1-0.6c-0.5,0.4-0.8,0.7-1.1,1c-2.6,2.6-5.1,5.2-7.7,7.7c-3.4,3.4-7.9,3.4-11.3,0
				c-4.2-4.1-8.3-8.2-12.4-12.4c-3.5-3.5-3.5-8,0-11.5c2.5-2.6,5.1-5.1,7.7-7.6c0.3-0.3,0.6-0.7,0.9-1c0-0.1-0.1-0.3-0.1-0.4
				c-2.1,0.4-4.3,0.5-6.4,1.1c-5.9,1.7-11.4,4.5-15.9,8.7c-3.9,3.7-5.2,8.3-3.7,13.5c0.7,2.5,1.9,4.9,3.1,7.2c1,2.1,1,2.9-0.6,4.5
				c-2,2-4,4-6,6c-0.3,0.3-0.6,0.6-0.9,0.8c-1.1,0.8-2.5,0.7-3.4-0.2c-0.8-0.9-0.9-2.4,0-3.4c1.7-1.8,3.4-3.6,5.1-5.3
				c0.7-0.7,0.7-1.2,0.3-2c-2-3.6-3.4-7.5-3.3-11.6c0.1-6.9,3.7-11.9,9-15.8c5.7-4.1,12-7,18.9-8.3c0.2,0,0.3-0.1,0.4-0.2
				c2.8,0,5.6,0,8.4,0c0.4,0.2,0.9,0.4,1.3,0.5c2.2,0.7,2.8,2.8,1.2,4.5c-0.4,0.4-0.8,0.8-1.2,1.2c-3.8,3.8-7.6,7.6-11.4,11.3
				c-1.5,1.5-1.6,3-0.3,4.2c4.2,4.2,8.4,8.4,12.6,12.6c1.4,1.4,2.9,1.3,4.3-0.1c1.2-1.1,2.3-2.3,3.4-3.4c3-2.9,5.9-5.9,8.9-8.8
				c2.2-2.2,4.3-1.5,5.1,1.4c0.2,0.8,0.4,1.7,0.6,2.5L137.3,44.8L137.3,44.8z"/>
			<path class="st1" d="M34.2,140.3c-1.4-0.3-2.8-0.6-4.2-1c-13.2-3.4-21.5-17.3-18.3-30.5c2.8-11.6,12.4-19.6,24.2-20.1
				c1.5-0.1,3,0,4.4,0.3c1.2,0.3,2-0.1,2.9-0.9c3.5-3.6,7.1-7.1,10.6-10.6c0.7-0.7,1.6-1.3,2.6-0.8c0.7,0.4,1.4,1.2,1.6,2
				c0.2,0.7-0.1,1.7-0.6,2.2c-4.2,4.3-8.4,8.5-12.6,12.7c-1,1-2.2,0.9-3.4,0.6c-5.6-1.1-10.8-0.3-15.7,2.7
				c-7.6,4.7-11.1,13.9-8.9,23c2.1,8.3,9.7,14.6,18.4,15.2c11.3,0.7,20.4-6.5,22.1-17.6c0.4-2.7,0.4-5.4-0.5-8.1
				c-0.4-1.2-0.2-2.3,0.7-3.3c3-3,6.1-6.1,9.1-9.2c1.1-1.1,2.3-1.3,3.3-0.6C71,97,71.3,98,71,99.1c-0.2,0.6-0.7,1.2-1.2,1.7
				c-2.4,2.5-4.9,4.9-7.3,7.4c-0.4,0.4-0.6,1.2-0.5,1.7c2.4,8.9-2.2,20.6-11.4,26.2c-3.2,2-6.6,3.2-10.3,3.7c-0.3,0-0.6,0.2-0.9,0.3
				C37.7,140.3,35.9,140.3,34.2,140.3L34.2,140.3z"/>
			<path class="st1" d="M33.2,128.9c-0.4-0.2-1.1-0.5-1.7-1c-2.9-2.8-5.7-5.7-8.6-8.5c-0.8-0.8-1-1.8-0.7-2.9
				c1.1-3.7,2.1-7.4,3.1-11.1c0.3-1.3,1.1-2,2.4-2.4c3.7-1,7.4-2,11-3.1c1.3-0.4,2.3-0.1,3.2,0.9c2.7,2.7,5.4,5.5,8.2,8.2
				c0.9,0.9,1.2,1.8,0.9,3.1c-1,3.7-1.9,7.5-2.8,11.2c-0.3,1.1-0.9,1.9-2,2.2c-4.1,1.1-8.1,2.2-12.2,3.3
				C33.9,128.9,33.7,128.9,33.2,128.9L33.2,128.9z M34.5,123.4c0.4-0.1,0.7-0.2,0.9-0.3c2.4-0.6,4.7-1.3,7.1-1.8
				c0.8-0.2,1.1-0.6,1.3-1.4c0.6-2.4,1.2-4.8,1.7-7.2c0.1-0.4-0.1-1.1-0.4-1.5c-1.8-1.9-3.7-3.8-5.6-5.6c-0.3-0.3-1-0.4-1.5-0.3
				c-2.4,0.6-4.9,1.2-7.2,1.9c-0.5,0.1-1.1,0.8-1.2,1.3c-0.7,2.3-1.3,4.7-1.9,7.1c-0.1,0.5,0.1,1.2,0.4,1.6c1.8,1.9,3.6,3.7,5.5,5.5
				C33.9,123.1,34.3,123.3,34.5,123.4z"/>
			<path class="st2" d="M132.1,124.2c-0.1,4.7-2.1,8.3-6.4,10.2c-4,1.8-7.9,1.3-11.2-1.7c-4.4-4-8.5-8.3-12.8-12.5
				c-5.9-5.9-11.7-11.9-17.7-17.7c-2.2-2.2-3.6-4.5-3-7.7c0.1-0.7-0.3-1.7-0.8-2.2c-1.7-1.9-3.5-3.7-5.4-5.4
				c-1.1-1.1-2.1-1.2-3.6-0.5c-1.5,0.8-2.1,0.7-3.4-0.5c-0.3-0.3-0.6-0.6-1-0.9c-1.3-1.3-1.3-2.5-0.1-3.8c3.9-3.9,7.8-7.8,11.7-11.7
				c1.2-1.2,2.5-1.2,3.7,0.1c0.4,0.4,0.8,0.8,1.2,1.2c0.8,0.9,1,1.9,0.4,3c-0.9,1.7-0.8,2.6,0.6,4c1.6,1.6,3.2,3.2,4.8,4.9
				c0.9,0.9,1.8,1.3,3.1,1.1c2.6-0.3,4.8,0.6,6.6,2.5c9.8,9.9,19.7,19.8,29.6,29.7C130.7,118.4,132.1,121,132.1,124.2L132.1,124.2z
				 M87.7,93.9c10,10.1,20.1,20.1,30,30c1.1-1.1,2.3-2.2,3.3-3.1c-10-10-20.1-20.1-30-30.1C89.9,91.8,88.7,92.9,87.7,93.9L87.7,93.9
				z"/>
			<path class="st3" d="M87.7,93.9c1-1,2.2-2.1,3.2-3.2c10,10,20,20,30,30.1c-1,0.9-2.2,2.1-3.3,3.1C107.8,114,97.7,104,87.7,93.9
				L87.7,93.9z"/>
		</g>
	</g>
</g>
</svg>
