<svg width="111" height="137" viewBox="0 0 111 137" fill="none" xmlns="http://www.w3.org/2000/svg">
<g clip-path="url(#clip0_0_35)">
<path d="M38.6645 38.859C38.6645 41.0208 37.1817 42.6193 35.1058 42.6802C33.0219 42.7411 31.4189 41.1655 31.2426 38.9047C31.0101 35.8751 28.0766 34.0331 25.1031 35.0454C23.2115 35.6925 21.9932 37.4584 22.1455 39.3538C22.2898 41.1807 24.013 42.9695 25.9927 43.3349C27.6438 43.6393 29.3751 43.7078 30.93 44.2407C35.3382 45.7555 37.871 48.8916 38.4641 53.2761C39.2175 58.8404 36.4764 63.1412 31.0342 65.4628C30.7697 65.577 30.5452 65.9804 30.4811 66.2849C30.3048 67.1375 30.3769 68.0661 30.0804 68.8654C29.5193 70.3649 27.9163 71.1261 26.2091 70.9206C24.6222 70.7303 23.3798 69.5885 23.1233 68.0585C23.0352 67.5333 22.9711 66.9852 23.0352 66.4676C23.1073 65.8586 22.939 65.5846 22.3058 65.3563C17.8495 63.7425 14.8198 59.5103 14.8118 54.9735C14.8118 52.9335 16.1503 51.4644 18.154 51.335C20.3261 51.1904 21.897 52.4464 22.1375 54.6006C22.3218 56.26 22.9069 57.653 24.4779 58.5436C26.0408 59.4265 28.1568 59.3124 29.5514 58.2619C31.0021 57.1658 31.5792 55.2856 31.0101 53.4816C30.5052 51.8603 28.9022 50.6043 27.0988 50.5282C22.3619 50.3379 18.691 48.3892 16.2625 44.4995C13.1286 39.4756 14.8999 32.9217 20.2299 29.6866C20.9593 29.2451 21.7768 28.9407 22.5302 28.5296C22.7466 28.4078 22.955 28.1338 22.9871 27.9054C23.0592 27.403 22.9951 26.893 23.0352 26.383C23.1634 24.4039 24.6702 23.0033 26.674 22.9805C28.5575 22.9577 30.3769 24.3963 30.3208 26.2689C30.2727 27.8598 30.9059 28.522 32.3486 29.169C36.5565 31.0568 38.7126 35.936 38.6725 38.8514L38.6645 38.859Z" fill="#DA2222"/>
<path d="M81.0719 79.1263C60.5054 79.1263 39.9389 79.1263 19.3723 79.1263C18.8433 79.1263 18.2983 79.1568 17.7853 79.2634C16.0301 79.6211 14.8358 81.0369 14.8278 82.704C14.8198 84.2644 15.9659 85.6422 17.6972 86.0228C18.3704 86.175 19.0838 86.2131 19.7811 86.2131C29.896 86.2207 40.011 86.2207 50.1259 86.2207C60.3531 86.2207 70.5803 86.2207 80.8074 86.2131C81.2803 86.2131 81.7692 86.2131 82.2341 86.1446C84.4623 85.8553 85.8328 84.0437 85.376 82.0189C84.9352 80.0626 83.5406 79.1263 81.0719 79.1263Z" fill="#243C84" stroke="#243C84" stroke-width="0.5" stroke-miterlimit="10"/>
<path d="M81.7051 99.1153C81.3685 99.1001 81.0319 99.1001 80.6952 99.1001C70.5562 99.1001 60.4092 99.1001 50.2702 99.1001C40.0751 99.1001 29.872 99.1001 19.6769 99.1001C19.1719 99.1001 18.659 99.1001 18.1621 99.1534C16.6152 99.3285 15.3167 100.356 14.948 101.734C14.5553 103.211 15.0602 104.413 16.2785 105.365C17.2323 106.111 18.3865 106.179 19.5487 106.179C40.1152 106.179 60.6817 106.179 81.2402 106.179C81.4647 106.179 81.6891 106.179 81.9135 106.164C84.0295 105.966 85.5443 104.428 85.4562 102.571C85.368 100.554 83.8932 99.1914 81.7051 99.1153Z" fill="#243C84" stroke="#243C84" stroke-width="0.5" stroke-miterlimit="10"/>
<path d="M83.0677 39.4908C82.3623 39.2701 81.5849 39.2168 80.8315 39.2092C72.6642 39.1939 64.4969 39.1939 56.3296 39.2092C55.7124 39.2092 55.0872 39.232 54.4861 39.331C52.5064 39.6431 51.1038 41.8049 51.6488 43.6393C52.1778 45.4129 53.5724 46.334 55.7124 46.334C60.0084 46.334 64.3045 46.334 68.5925 46.334V46.3035C72.1592 46.3035 75.7259 46.3035 79.2846 46.3035C80.2384 46.3035 81.1921 46.3264 82.1459 46.2578C83.9573 46.1208 85.2317 44.9334 85.4882 43.2054C85.7206 41.6602 84.6947 40.0084 83.0596 39.4984L83.0677 39.4908Z" fill="#243C84" stroke="#243C84" stroke-width="0.5" stroke-miterlimit="10"/>
<path d="M81.8815 59.2211C77.4411 59.1983 73.0008 59.2211 68.5685 59.2211C64.2163 59.2211 59.8562 59.2211 55.504 59.2211C53.2358 59.2211 51.4885 60.8044 51.4885 62.8215C51.4885 64.8083 53.2117 66.2621 55.5361 66.2469C61.1787 66.2165 66.8292 66.1708 72.4718 66.1632C75.1408 66.1632 77.8098 66.2469 80.4708 66.2089C81.5208 66.1936 82.6349 66.1327 83.5886 65.7674C85.0875 65.2041 85.7767 63.5218 85.4 62.0147C84.9752 60.3248 83.6528 59.2363 81.8815 59.2287V59.2211Z" fill="#243C84" stroke="#243C84" stroke-width="0.5" stroke-miterlimit="10"/>
<path d="M110.76 10.3447C110.559 7.02585 109.165 4.25509 106.319 2.25315C104.035 0.639413 101.438 0.190308 98.6168 0.190308C72.9046 0.235979 47.2005 0.220755 21.4883 0.228367C17.096 0.228367 12.9924 3.12852 11.5657 7.07152C11.2611 7.91644 11.1088 8.76898 11.0207 9.62913C10.9325 9.62913 10.8443 9.62913 10.7562 9.62913C6.36394 9.62913 2.26025 12.5293 0.833576 16.4723C0.128254 18.4209 0.200389 20.4153 0.200389 22.4172C0.200389 58.0412 0.200389 93.6728 0.200389 129.297C0.200389 130.636 0.152299 131.969 0.200389 133.308C0.24848 134.808 1.04998 135.866 2.46864 136.513C3.85524 137.152 5.03345 136.657 6.1315 135.866C6.46813 135.63 6.75667 135.325 7.04522 135.036C10.5718 131.443 14.0904 127.843 17.617 124.25C17.7773 124.083 17.9697 123.938 18.162 123.763C18.4346 123.991 18.6429 124.166 18.8433 124.349C22.8027 127.911 26.7541 131.481 30.7136 135.044C33.1982 137.282 34.9455 137.312 37.4221 135.105C39.9148 132.874 42.3674 130.591 44.844 128.33C46.5993 126.724 48.3626 125.11 50.134 123.489C50.3343 123.664 50.4786 123.786 50.6229 123.915C54.8708 127.774 59.1028 131.641 63.3667 135.478C65.3384 137.251 67.1018 137.213 69.0494 135.432C70.7085 133.91 72.3516 132.372 74.0267 130.865C76.6557 128.497 79.3006 126.153 82.1459 123.603C82.3704 123.907 82.5066 124.151 82.691 124.341C86.2897 128.018 89.8724 131.71 93.5192 135.348C94.0963 135.919 94.8898 136.429 95.6833 136.642C97.8794 137.236 100.027 135.356 100.027 132.958C100.027 129.198 100.027 125.445 100.027 121.685C101.43 123.108 102.833 124.532 104.251 125.94C104.828 126.511 105.622 127.021 106.415 127.234C108.612 127.828 110.76 125.947 110.76 123.55C110.76 87.1189 110.76 50.688 110.76 14.2572C110.76 12.9479 110.824 11.6311 110.744 10.3294L110.76 10.3447ZM92.6216 66.9852C92.6216 85.2387 92.6216 103.5 92.6216 121.753V124.128C91.8601 123.359 91.227 122.728 90.6018 122.088C88.7904 120.223 86.987 118.351 85.1836 116.478C84.0054 115.253 82.5868 114.804 80.9277 115.382C80.4067 115.565 79.9418 115.968 79.517 116.341C75.2851 120.14 71.0692 123.946 66.8613 127.767C66.3884 128.193 66.0838 128.261 65.5629 127.782C61.4672 124.006 57.3395 120.261 53.2278 116.509C51.2 114.659 49.2844 114.636 47.2566 116.493C43.0807 120.307 38.9129 124.121 34.7692 127.972C34.2562 128.452 33.9757 128.338 33.5429 127.942C29.4231 124.151 25.2714 120.398 21.1597 116.592C19.8853 115.412 18.4987 114.765 16.7594 115.39C16.1342 115.61 15.5492 116.075 15.0843 116.547C12.7359 118.922 10.4356 121.335 8.11121 123.732C7.999 123.847 7.87878 123.946 7.6223 124.174V123.268C7.6223 88.9229 7.6223 54.5701 7.6223 20.225C7.6223 18.1241 9.00088 16.7159 11.2371 16.5712C11.9344 16.5256 12.6397 16.5408 13.345 16.5408C38.2958 16.5408 63.2465 16.5408 88.1973 16.5332C90.5697 16.5332 91.9243 17.34 92.4853 19.1441C92.6055 19.5399 92.6136 19.9814 92.6136 20.4077C92.6136 35.9361 92.6136 51.4644 92.6136 67.0005L92.6216 66.9852ZM103.354 57.5769C103.354 75.8303 103.354 94.0914 103.354 112.345V114.72C102.592 113.951 101.959 113.319 101.334 112.68C100.901 112.238 100.476 111.789 100.043 111.348C100.043 82.1254 100.043 52.9031 100.043 23.6732C100.043 22.3639 100.108 21.0471 100.027 19.7454C99.8271 16.4266 98.4325 13.6559 95.5871 11.6539C93.3028 10.0402 90.706 9.59107 87.8847 9.59107C64.7694 9.62914 41.6541 9.62152 18.5388 9.62913C18.9635 8.19809 20.1898 7.26943 21.9692 7.14764C22.6665 7.10196 23.3718 7.11719 24.0771 7.11719C49.0279 7.11719 73.9786 7.11719 98.9294 7.10958C101.302 7.10958 102.656 7.91644 103.217 9.72048C103.338 10.1163 103.346 10.5578 103.346 10.9841C103.346 26.5125 103.346 42.0408 103.346 57.5769H103.354Z" fill="#243C84" stroke="#243C84" stroke-width="0.5" stroke-miterlimit="10"/>
</g>
<defs>
<clipPath id="clip0_0_35">
<rect width="111" height="137" fill="white"/>
</clipPath>
</defs>
</svg>
