<?xml version="1.0" encoding="utf-8"?>
<!-- Generator: Adobe Illustrator 27.8.0, SVG Export Plug-In . SVG Version: 6.00 Build 0)  -->
<svg version="1.1" id="Layer_1" xmlns="http://www.w3.org/2000/svg" xmlns:xlink="http://www.w3.org/1999/xlink" x="0px" y="0px"
	 viewBox="0 0 159 149" style="enable-background:new 0 0 159 149;" xml:space="preserve">
<style type="text/css">
	.st0{clip-path:url(#SVGID_00000010285181454750198680000001444844646612158107_);}
	.st1{fill:#DA2222;}
	.st2{fill:#243C84;stroke:#243C84;stroke-width:2;stroke-miterlimit:10;}
</style>
<g>
	<defs>
		<rect id="SVGID_1_" width="159" height="144"/>
	</defs>
	<clipPath id="SVGID_00000084531191860101354350000017372552281488767897_">
		<use xlink:href="#SVGID_1_"  style="overflow:visible;"/>
	</clipPath>
	<g style="clip-path:url(#SVGID_00000084531191860101354350000017372552281488767897_);">
		<path class="st1" d="M36.2,115.3l43.2,22.4l43.3-22.2L78.8,92L36.2,115.3z"/>
		<path class="st2" d="M157.9,135.2c0.1-0.4,0-0.8-0.1-1.1l-4-14.9c-0.4-1.5-2-2.5-3.5-2.1c-1.5,0.4-2.5,2-2.1,3.5l2.2,8.1
			l-24.9-14.4V66.5c0-0.3,0-0.5-0.1-0.8c0-0.1-0.1-0.2-0.1-0.3l-0.2-0.4c-0.1-0.1-0.1-0.1-0.2-0.2c-0.1-0.1-0.2-0.3-0.3-0.3
			c-0.1-0.1-0.1-0.1-0.2-0.2c-0.1-0.1-0.2-0.2-0.3-0.3L82.3,40.3V10.8l6,6c0.6,0.6,1.3,0.8,2.1,0.8c0.8,0,1.5-0.3,2.1-0.8
			c1.1-1.1,1.1-3,0-4.1L81.5,1.8c-0.3-0.3-0.6-0.5-1-0.6c-0.7-0.3-1.5-0.3-2.2,0c-0.3,0.1-0.7,0.3-1,0.6L66.4,12.7
			c-1.1,1.1-1.1,3,0,4.1c0.6,0.6,1.3,0.8,2.1,0.8c0.8,0,1.5-0.3,2.1-0.8l6-6v29.5L34.8,64c-0.1,0-0.1,0.1-0.2,0.1
			c-0.1,0.1-0.1,0.1-0.2,0.1c-0.1,0.1-0.1,0.1-0.2,0.1c-0.1,0.1-0.2,0.2-0.3,0.3c-0.1,0.1-0.1,0.1-0.2,0.2c-0.1,0.1-0.1,0.3-0.2,0.4
			c0,0.1-0.1,0.2-0.1,0.3c0,0.1,0,0.2,0,0.3c0,0.1,0,0.2,0,0.3c0,0.1,0,0.1,0,0.2v47.8L8.4,128.7l2.2-8.1c0.4-1.5-0.5-3.1-2.1-3.5
			c-1.6-0.4-3.1,0.5-3.5,2.1L1,134c-0.1,0.4-0.1,0.8-0.1,1.1c0.1,0.4,0.2,0.7,0.3,1c0.2,0.3,0.4,0.6,0.6,0.8
			c0.1,0.1,0.1,0.1,0.2,0.1c0.3,0.2,0.6,0.3,0.9,0.4l14.9,4c0.3,0.1,0.5,0.1,0.8,0.1c1.3,0,2.5-0.8,2.8-2.2c0.4-1.5-0.5-3.1-2.1-3.5
			l-8.1-2.2l25.2-14.6L78,142.7c0,0,0.3,0.1,0.4,0.2c0.1,0,0.2,0.1,0.3,0.1c0.2,0.1,0.5,0.1,0.8,0.1c0.3,0,0.5,0,0.8-0.1
			c0.1,0,0.2-0.1,0.3-0.1c0.1-0.1,0.3-0.1,0.4-0.2l41.4-23.5l25.2,14.6l-8.1,2.2c-1.5,0.4-2.5,2-2.1,3.5c0.3,1.3,1.5,2.2,2.8,2.2
			c0.3,0,0.5,0,0.8-0.1l14.9-4c0.3-0.1,0.6-0.3,0.9-0.4c0.1-0.1,0.1-0.1,0.2-0.1c0.3-0.2,0.5-0.4,0.6-0.8
			C157.8,135.9,157.9,135.6,157.9,135.2L157.9,135.2L157.9,135.2z M76.4,135.3l-37.3-21.2L39,114V71.6l3.1,1.7l0,0l34.3,19.5
			L76.4,135.3L76.4,135.3L76.4,135.3z M79.3,45.4l37.3,21.2l-3.3,1.9L84.1,85.1l-4.7,2.7l-4.7-2.7L45.4,68.5l-3.3-1.9L79.3,45.4
			L79.3,45.4L79.3,45.4z M82.2,131.7V92.8l34.3-19.5l0,0l3.1-1.7v42.4l-0.1,0.1l-37.3,21.2L82.2,131.7L82.2,131.7L82.2,131.7z"/>
	</g>
</g>
</svg>
