<svg width="81" height="54" viewBox="0 0 81 54" fill="none" xmlns="http://www.w3.org/2000/svg">
<g clip-path="url(#clip0_0_84)">
<path d="M80.8882 24.385L68.8574 1.76526C68.3542 0.816901 67.3757 0.234741 66.3041 0.234741C65.8288 0.234741 65.3628 0.347417 64.9435 0.582159L57.4045 4.65728C56.7242 5.02347 56.2303 5.6338 56.0067 6.38498C55.783 7.13615 55.8576 7.92488 56.221 8.60094V8.61972L54.1988 9.32394L41.1616 7.39906C40.8727 7.35211 40.5745 7.43662 40.3416 7.61502L36.6979 10.4131H27.4721L25.1611 8.78873L25.2542 8.61033C25.6177 7.92488 25.6922 7.13615 25.4686 6.39437C25.2449 5.64319 24.751 5.03286 24.0707 4.66667L16.5224 0.582159C16.1031 0.356807 15.6371 0.234741 15.1619 0.234741C14.0902 0.234741 13.1117 0.816901 12.6085 1.77465L0.57776 24.385C0.214322 25.0704 0.130452 25.8592 0.363425 26.6009C0.587079 27.3521 1.08098 27.9624 1.76126 28.3286L9.30958 32.4038C9.72893 32.6291 10.1949 32.7512 10.6701 32.7512C11.7232 32.7512 12.683 32.1784 13.1956 31.2676C13.2328 31.2864 13.2608 31.3052 13.2981 31.3146L14.7052 31.7465C14.9568 32.4789 15.4787 33.7465 16.2988 34.7981C16.4292 34.9765 16.6156 35.0892 16.8113 35.1549L16.0938 35.8779C14.5561 37.4366 14.5561 39.9531 16.0938 41.5117C16.8393 42.2629 17.8364 42.6761 18.8894 42.6761C19.3647 42.6761 19.8213 42.5822 20.25 42.4225C20.4084 43.1643 20.7718 43.8498 21.3123 44.3944C22.0579 45.1455 23.055 45.5587 24.108 45.5587C24.6765 45.5587 25.217 45.4272 25.7202 45.2019C25.8879 45.8873 26.2234 46.5352 26.7453 47.061C27.4908 47.8122 28.4879 48.2254 29.5409 48.2254C29.8951 48.2254 30.2399 48.1596 30.5753 48.0657C30.7058 48.8826 31.0786 49.6432 31.675 50.2441C32.4205 50.9953 33.4176 51.4085 34.4706 51.4085C35.4585 51.4085 36.381 51.0329 37.1079 50.3756L41.0778 53.3897C41.8326 53.9624 42.7179 54.2347 43.6032 54.2347C44.8799 54.2347 46.1472 53.6526 46.9673 52.5446C47.4799 51.8498 47.7687 51.0329 47.806 50.1878C48.1229 50.2723 48.4583 50.3193 48.7938 50.3193C48.9895 50.3193 49.1945 50.3005 49.3902 50.2723C50.5085 50.1127 51.487 49.5305 52.1673 48.6197C52.6612 47.9624 52.9407 47.1925 52.9966 46.3944C53.3974 46.5258 53.8167 46.5915 54.2454 46.5915C54.4411 46.5915 54.6461 46.5728 54.8418 46.5446C55.9507 46.385 56.9385 45.8028 57.6095 44.892C58.1686 44.1502 58.4575 43.2582 58.4482 42.3474C58.6532 42.3756 58.8582 42.3944 59.0726 42.3944C59.2683 42.3944 59.4733 42.3756 59.669 42.3474C60.7779 42.1878 61.7657 41.6056 62.4367 40.7042C63.117 39.8028 63.3966 38.6761 63.2381 37.5587C63.1915 37.2582 63.117 36.9671 63.0145 36.6854C65.717 35.1925 66.8912 32.9202 67.3012 31.8592L68.4008 31.4648C68.932 32.2535 69.8266 32.7418 70.7958 32.7418C71.271 32.7418 71.737 32.6291 72.1563 32.3944L79.6953 28.3192C81.0932 27.5681 81.6244 25.8028 80.8788 24.3756L80.8882 24.385ZM60.6941 39.3991C60.3679 39.831 59.8926 40.1127 59.3615 40.1878C58.8303 40.2629 58.2991 40.1221 57.8518 39.7934L56.836 39.0423C56.836 39.0423 56.7894 38.9953 56.7708 38.9765C56.7428 38.9577 56.7149 38.939 56.6869 38.9296L46.7623 31.5305C46.2777 31.1737 45.5974 31.277 45.234 31.7653C44.8706 32.2535 44.9824 32.939 45.467 33.3052L55.5314 40.8075C55.9228 41.1268 56.1837 41.5775 56.249 42.0845C56.3235 42.6197 56.1837 43.1549 55.8669 43.5962C55.5407 44.0282 55.0654 44.3099 54.5343 44.385C54.0031 44.4601 53.4719 44.3192 53.0526 44.0094L43.5659 36.6103C43.0906 36.2441 42.401 36.3286 42.0376 36.8075C41.6742 37.2864 41.758 37.9812 42.2333 38.3474L49.8282 44.2723C49.8841 44.338 49.94 44.4038 50.0146 44.4601C50.4433 44.7887 50.7322 45.2676 50.8067 45.8028C50.8813 46.338 50.7415 46.8732 50.4246 47.3146C50.0985 47.7465 49.6232 48.0376 49.092 48.1127C48.5608 48.1878 48.0297 48.047 47.6103 47.7371L39.9036 41.6714C39.4283 41.2958 38.7387 41.3803 38.3753 41.8592C38.0025 42.338 38.0864 43.0329 38.5617 43.3991L44.6376 48.1784C44.6935 48.2441 44.7587 48.3193 44.8333 48.3756C45.262 48.7042 45.5508 49.1831 45.6161 49.7183C45.6906 50.2535 45.5508 50.7887 45.234 51.23C44.563 52.1221 43.2957 52.3099 42.401 51.6338L38.6642 48.7981C39.9502 47.23 39.8756 44.9108 38.4312 43.446C37.7416 42.7512 36.8377 42.3662 35.8778 42.3099C35.8964 42.1408 35.9244 41.9812 35.9244 41.8122C35.9244 40.7512 35.5144 39.7465 34.7689 38.9953C34.1352 38.3568 33.3151 37.9718 32.4391 37.8685C32.6907 36.6103 32.3273 35.2488 31.3581 34.2817C30.6126 33.5305 29.6155 33.1174 28.5625 33.1174C27.5094 33.1174 26.5123 33.5305 25.7668 34.2817L25.0492 35.0047C24.8628 34.4319 24.5646 33.8873 24.108 33.4272C23.3625 32.6761 22.3747 32.2629 21.3123 32.2629C20.25 32.2629 19.2622 32.6761 18.5167 33.4272L18.1998 33.7465C18.1625 33.6338 18.1066 33.5211 18.0321 33.4178C17.1095 32.2347 16.6529 30.5634 16.6436 30.554C16.5411 30.1878 16.2708 29.8967 15.9074 29.7934L14.2579 29.2864L24.136 10.7136L26.5123 12.3944C26.6987 12.5258 26.913 12.5915 27.1367 12.5915H33.837L29.3266 16.0657C29.1123 16.2347 28.9632 16.4789 28.9073 16.7512L27.1273 27.0423C27.0621 27.446 27.2112 27.8498 27.5281 28.0939C28.0872 28.5352 29.047 28.9671 30.2119 28.9671C31.5725 28.9671 33.2033 28.385 34.8341 26.5822C34.8527 26.5634 34.8714 26.5352 34.8993 26.507L38.3287 21.9437L39.9502 21.3427L60.312 36.5352C60.7407 36.8638 61.0202 37.3333 61.0948 37.8779C61.1693 38.4131 61.0295 38.9484 60.7034 39.3897L60.6941 39.3991ZM78.6702 26.3944L71.1313 30.4695C70.7958 30.6573 70.3485 30.507 70.1714 30.1784L58.1407 7.55869C58.0568 7.38967 58.0382 7.20188 58.0941 7.01408C58.15 6.82629 58.2712 6.67606 58.4389 6.59155L65.9779 2.51643C66.0804 2.46009 66.1922 2.43192 66.3134 2.43192C66.5836 2.43192 66.8259 2.57277 66.9471 2.80751L78.9778 25.4272C79.1642 25.784 79.0337 26.216 78.6889 26.4038L78.6702 26.3944Z" fill="#A20000" stroke="#A20000" stroke-width="0.5" stroke-miterlimit="10"/>
</g>
<defs>
<clipPath id="clip0_0_84">
<rect width="81.4659" height="54.4695" fill="white"/>
</clipPath>
</defs>
</svg>
